# xmcd
#
# Track frame offsets:
#	150
#	12497
#	23304
#	37402
#	50143
#	60941
#	74766
#
# Disc length: 1151 seconds
#
# Revision: 1
# Processed by: cddbd v1.5.2PL0 Copyright (c) Steve Scherf et al.
# Submitted via: audiograbber 1.83.01
#
DISCID=5f047d07
DTITLE=Laini Risto - Sings The Songs Of Patsy Cline Laini Risto
DYEAR=1900
DGENRE=
TTITLE0=Crazy
TTITLE1=Blue Moon Of Kentucky
TTITLE2=She´s Got You
TTITLE3=I Fall To Pieces
TTITLE4=Leving On Your Mind
TTITLE5=Tennessee Waltz
TTITLE6=Sweet Dreams
EXTD=
EXTT0=
EXTT1=
EXTT2=
EXTT3=
EXTT4=
EXTT5=
EXTT6=
PLAYORDER=
